<svg xmlns="http://www.w3.org/2000/svg" width="512" height="512" viewBox="0 0 512 512">
  <defs>
    <linearGradient id="bg" x1="0" y1="0" x2="1" y2="1">
      <stop offset="0" stop-color="#8A4D6A"/>
      <stop offset="1" stop-color="#6B3A4F"/>
    </linearGradient>
  </defs>

  <rect width="512" height="512" rx="115" fill="url(#bg)"/>

  <!-- small heart above -->
  <path d="M 256 124 C 239 101 205 104 205 135 C 205 161 256 188 256 188 C 256 188 307 161 307 135 C 307 104 273 101 256 124 Z" fill="#E8896A"/>

  <!-- two figures — togetherness -->
  <g transform="translate(256,290)">
    <circle cx="-56" cy="-44" r="46" fill="#E8C879"/>
    <path d="M -56 12 C -114 12 -126 76 -122 118 L 10 118 C 6 64 -6 12 -56 12 Z" fill="#E8C879"/>
    <circle cx="56" cy="-44" r="46" fill="#FBF7EE"/>
    <path d="M 56 12 C 114 12 126 76 122 118 L -10 118 C -6 64 6 12 56 12 Z" fill="#FBF7EE"/>
  </g>
</svg>
